<svg xmlns="http://www.w3.org/2000/svg" viewBox="0 0 880 278" width="880" height="278" role="img" aria-label="Check a document against its vocabulary — for a person, for an agent; reachable on sdk as check_envelope, cli as x0k-tangle check; enabled by x0k-folio, x0k-ontology; status wip.">
<defs><marker id="a" viewBox="0 0 10 10" refX="9" refY="5" markerWidth="7" markerHeight="7" orient="auto-start-reverse"><path d="M0,0 L10,5 L0,10 z" fill="#96b4dc"/></marker></defs>
<g font-family="ui-monospace,'IBM Plex Mono',Menlo,monospace">
<text x="24" y="34" font-size="20" fill="#e2e8f0">Check a document against its vocabulary</text>
<text x="24" y="52" font-size="12" fill="#94a3b8">x0k:affordance/check_a_document_against_shipped_vocabulary</text>
<line x1="24" y1="62" x2="856" y2="62" stroke="#3a3a4e" stroke-width="0.8"/>
<text x="40" y="80" font-size="12" fill="#94a3b8">claimed for</text>
<text x="430" y="80" text-anchor="middle" font-size="12" fill="#94a3b8">reachable through</text>
<text x="636" y="80" font-size="12" fill="#94a3b8">enabled by</text>
<path d="M40,130 C56,110 88,110 104,130 C88,150 56,150 40,130 Z" fill="#1e1e2a" stroke="#3a3a4e" stroke-width="1.3"/>
<circle cx="72" cy="130" r="10" fill="#2a2a3a" stroke="#3a3a4e" stroke-width="1.1"/>
<circle cx="72" cy="130" r="4" fill="#e2e8f0"/>
<circle cx="75.6" cy="126.4" r="1.4" fill="#1e1e2a"/>
<text x="116" y="135" font-size="14" fill="#e2e8f0">a person</text>
<rect x="37" y="200" width="16" height="16" fill="#1e1e2a" stroke="#3a3a4e" stroke-width="1.1"/>
<rect x="41" y="206" width="8" height="3" fill="#2a2a3a"/>
<rect x="55" y="200" width="16" height="16" fill="#1e1e2a" stroke="#3a3a4e" stroke-width="1.1"/>
<rect x="73" y="200" width="16" height="16" fill="#1e1e2a" stroke="#3a3a4e" stroke-width="1.1"/>
<rect x="77" y="206" width="8" height="3" fill="#2a2a3a"/>
<rect x="91" y="200" width="16" height="16" fill="#1e1e2a" stroke="#3a3a4e" stroke-width="1.1"/>
<rect x="95" y="206" width="8" height="3" fill="#2a2a3a"/>
<g><path d="M40,184 h10 v5 l-5,5 l-5,-5 z" fill="#22d3ee" opacity="0.85"/><animateTransform attributeName="transform" type="translate" calcMode="discrete" values="0,0;18,0;36,0;54,0;36,0;18,0" dur="4s" repeatCount="indefinite"/></g>
<text x="116" y="211" font-size="14" fill="#e2e8f0">an agent</text>
<rect x="332" y="113" width="196" height="34" rx="17" fill="#1e1e2a" stroke="#3a3a4e" stroke-width="1.2"/>
<text xml:space="preserve" x="430" y="135" text-anchor="middle" font-size="14" fill="#e2e8f0"><tspan font-weight="bold">sdk</tspan><tspan fill="#94a3b8">  ·  check_envelope</tspan></text>
<rect x="323.6" y="189" width="212.8" height="34" rx="17" fill="#1e1e2a" stroke="#3a3a4e" stroke-width="1.2"/>
<text xml:space="preserve" x="430" y="211" text-anchor="middle" font-size="14" fill="#e2e8f0"><tspan font-weight="bold">cli</tspan><tspan fill="#94a3b8">  ·  x0k-tangle check</tspan></text>
<path d="M636,102 h30 l10,10 v46 h-40 z" fill="#1e1e2a" stroke="#3a3a4e" stroke-width="1.2"/>
<path d="M666,102 v10 h10" fill="none" stroke="#3a3a4e" stroke-width="1.2"/>
<rect x="644" y="122" width="24" height="6" fill="#2a2a3a"/>
<line x1="644" y1="134" x2="668" y2="134" stroke="#2f2f42" stroke-width="2"/>
<rect x="644" y="140" width="24" height="6" fill="#2a2a3a"/>
<text x="690" y="135" font-size="14" fill="#e2e8f0">x0k-folio</text>
<path d="M636,178 h30 l10,10 v46 h-40 z" fill="#1e1e2a" stroke="#3a3a4e" stroke-width="1.2"/>
<path d="M666,178 v10 h10" fill="none" stroke="#3a3a4e" stroke-width="1.2"/>
<rect x="644" y="198" width="24" height="6" fill="#2a2a3a"/>
<line x1="644" y1="210" x2="668" y2="210" stroke="#2f2f42" stroke-width="2"/>
<rect x="644" y="216" width="24" height="6" fill="#2a2a3a"/>
<text x="690" y="211" font-size="14" fill="#e2e8f0">x0k-ontology</text>
<line x1="200" y1="130" x2="326" y2="130" stroke="#96b4dc" stroke-width="1.2" marker-end="url(#a)"/>
<line x1="200" y1="130" x2="317.6" y2="206" stroke="#96b4dc" stroke-width="1.2" marker-end="url(#a)"/>
<line x1="200" y1="206" x2="326" y2="130" stroke="#96b4dc" stroke-width="1.2" marker-end="url(#a)"/>
<line x1="200" y1="206" x2="317.6" y2="206" stroke="#96b4dc" stroke-width="1.2" marker-end="url(#a)"/>
<line x1="534" y1="130" x2="628" y2="130" stroke="#96b4dc" stroke-width="1.2" marker-end="url(#a)"/>
<line x1="534" y1="130" x2="628" y2="206" stroke="#96b4dc" stroke-width="1.2" marker-end="url(#a)"/>
<line x1="542.4000000000001" y1="206" x2="628" y2="130" stroke="#96b4dc" stroke-width="1.2" marker-end="url(#a)"/>
<line x1="542.4000000000001" y1="206" x2="628" y2="206" stroke="#96b4dc" stroke-width="1.2" marker-end="url(#a)"/>
<text x="856" y="264" text-anchor="end" font-size="12" fill="#94a3b8">status: wip</text>
</g>
</svg>
