<!-- @generated by x0k-tangle (pipeline: identity-tangle) from corpora/x0k/publications/x0k-folio/x0k-folio.md — DO NOT EDIT. -->
<svg xmlns="http://www.w3.org/2000/svg" viewBox="0 0 760 268" width="760" height="268" role="img" aria-label="an implementation is constrained by an architecture and implements a design; architecture supports design; the design document declares an affordance">
  <defs><marker id="a" viewBox="0 0 10 10" refX="9" refY="5" markerWidth="7" markerHeight="7" orient="auto-start-reverse"><path d="M0,0 L10,5 L0,10 z" fill="#202526"/></marker></defs>
  <g font-family="Baskervville,Baskerville,'Iowan Old Style','EB Garamond',Georgia,serif">
    <path d="M70,18 h54 l14,14 v74 h-68 z" fill="#ffffff" stroke="#202526" stroke-width="1"/>
    <path d="M124,18 v14 h14" fill="none" stroke="#202526" stroke-width="1"/>
    <line x1="80" y1="43" x2="126" y2="43" stroke="#202526" stroke-opacity="0.16" stroke-width="1"/>
    <line x1="80" y1="54" x2="126" y2="54" stroke="#202526" stroke-opacity="0.16" stroke-width="1"/>
    <line x1="80" y1="65" x2="126" y2="65" stroke="#202526" stroke-opacity="0.16" stroke-width="1"/>
    <text x="104" y="128" text-anchor="middle" font-size="15" fill="#202526">architecture</text>
    <path d="M590,18 h54 l14,14 v74 h-68 z" fill="#ffffff" stroke="#202526" stroke-width="1"/>
    <path d="M644,18 v14 h14" fill="none" stroke="#202526" stroke-width="1"/>
    <line x1="600" y1="43" x2="646" y2="43" stroke="#202526" stroke-opacity="0.16" stroke-width="1"/>
    <line x1="600" y1="54" x2="646" y2="54" stroke="#202526" stroke-opacity="0.16" stroke-width="1"/>
    <line x1="600" y1="65" x2="646" y2="65" stroke="#202526" stroke-opacity="0.16" stroke-width="1"/>
    <text x="624" y="128" text-anchor="middle" font-size="15" fill="#202526">design document</text>
    <path d="M330,150 h54 l14,14 v74 h-68 z" fill="#ffffff" stroke="#202526" stroke-width="1"/>
    <path d="M384,150 v14 h14" fill="none" stroke="#202526" stroke-width="1"/>
    <line x1="340" y1="175" x2="386" y2="175" stroke="#202526" stroke-opacity="0.16" stroke-width="1"/>
    <rect x="340" y="180" width="41" height="10" fill="#202526" fill-opacity="0.06"/>
    <line x1="340" y1="201" x2="386" y2="201" stroke="#202526" stroke-opacity="0.16" stroke-width="1"/>
    <text x="364" y="260" text-anchor="middle" font-size="15" fill="#202526">implementation</text>
    <line x1="146" y1="62" x2="582" y2="62" stroke="#202526" stroke-width="1" marker-end="url(#a)"/>
    <text x="364" y="52" text-anchor="middle" font-size="11" fill="#202526" fill-opacity="0.6" font-family="'IBM Plex Mono','SFMono-Regular',Consolas,'Liberation Mono',monospace">supports</text>
    <line x1="344" y1="146" x2="150" y2="110" stroke="#202526" stroke-width="1" marker-end="url(#a)"/>
    <text x="215" y="142" text-anchor="middle" font-size="11" fill="#202526" fill-opacity="0.6" font-family="'IBM Plex Mono','SFMono-Regular',Consolas,'Liberation Mono',monospace">constrained by</text>
    <line x1="392" y1="146" x2="584" y2="110" stroke="#202526" stroke-width="1" marker-end="url(#a)"/>
    <text x="516" y="142" text-anchor="middle" font-size="11" fill="#202526" fill-opacity="0.6" font-family="'IBM Plex Mono','SFMono-Regular',Consolas,'Liberation Mono',monospace">implements</text>
    <line x1="624" y1="142" x2="624" y2="211" stroke="#202526" stroke-width="1" marker-end="url(#a)"/>
    <text x="642" y="180" font-size="11" fill="#202526" fill-opacity="0.6" font-family="'IBM Plex Mono','SFMono-Regular',Consolas,'Liberation Mono',monospace">declares</text>
    <rect x="551" y="216" width="146" height="34" rx="4" fill="#ffffff" stroke="#202526" stroke-width="1"/>
    <text x="624" y="238" text-anchor="middle" font-size="15" fill="#202526">affordance</text>
  </g>
</svg>
